:SAMPLES-PER-SECOND 30
:FULLY-SPECIFIED
:DEGREES
404
root  -0.854176 32.8478 13.3217 94.9555 8.22729 93.993
Spine  -3.07562 -9.15519 -12.7766
Spine1  -2.6177 10.1664 4.91096
Neck  3.97569e-016 0 -2.38542e-015
Head  19.6892 -3.98652 18.6023
R_Clavicle  0.42127 -19.2009 2.10343
R_UpperArm  30.8275 -7.2734 37.0465
R_Forearm  23.9988 -24.344 20.8698
R_Hand  -1.33648 7.84395 -21.5118
L_Clavicle  -0.491643 17.1206 -0.613524
L_UpperArm  -6.29055 2.94667 14.0019
L_Forearm  -7.28654 22.2743 28.2249
L_Hand  -0.159445 0.146861 -3.15631
L_Thigh  0.993025 -7.24183 -16.1681
L_Calf  3.04481 -2.87053 21.7454
L_Foot  5.32273 12.8854 6.84679
L_Toe0  2.83132 -0.212796 -1.40335
R_Thigh  11.9739 -10.5573 -2.40251
R_Calf  -6.33823 1.63995 5.00588
R_Foot  1.82529 2.46133 -12.4437
R_Toe0  -0.668576 -0.269031 -16.6765
405
root  -0.798628 33.1107 14.5158 94.558 8.04582 93.9953
Spine  -4.28993 -10.3112 -13.3356
Spine1  -3.61964 12.8415 4.02119
Neck  3.97569e-016 0 -2.38542e-015
Head  22.5359 -5.27454 19.6598
R_Clavicle  0.438019 -18.6624 2.61547
R_UpperArm  30.6579 -6.25685 38.6174
R_Forearm  24.4811 -22.5762 20.0324
R_Hand  -1.13096 7.91346 -19.9116
L_Clavicle  -0.462923 16.3002 -0.587437
L_UpperArm  -5.37026 2.08466 14.8214
L_Forearm  -7.07251 22.3439 28.3312
L_Hand  -0.141323 0.231493 -2.74864
L_Thigh  0.423565 -6.5957 -19.5354
L_Calf  3.58559 -3.3055 25.0908
L_Foot  5.08174 13.1455 5.86412
L_Toe0  2.79994 -0.276159 -0.250709
R_Thigh  11.7529 -10.6468 -2.31437
R_Calf  -8.45875 5.50814 17.2959
R_Foot  1.79387 2.03673 -12.9206
R_Toe0  -1.91957 -0.272228 -17.3568
406
root  -0.734822 33.2654 15.6803 94.0355 8.33259 93.8448
Spine  -5.28445 -10.5666 -13.2021
Spine1  -4.41282 14.8182 3.27269
Neck  3.97569e-016 0 -2.38542e-015
Head  24.7604 -6.42597 20.16
R_Clavicle  0.450109 -18.2723 2.90036
R_UpperArm  30.949 -5.02369 40.2351
R_Forearm  24.2124 -21.2329 18.8255
R_Hand  -1.0034 7.84977 -18.9094
L_Clavicle  -0.435804 15.5169 -0.583174
L_UpperArm  -4.33608 0.912302 15.4842
L_Forearm  -6.69724 22.5493 28.6469
L_Hand  -0.116097 0.464147 -2.15687
L_Thigh  0.528796 -5.9469 -23.5189
L_Calf  3.35229 -3.81301 28.8375
L_Foot  5.07504 13.5873 5.44927
L_Toe0  2.32856 -0.269798 0.463174
R_Thigh  10.4684 -10.066 -3.64163
R_Calf  -8.7452 9.48868 31.0743
R_Foot  1.69883 1.5799 -12.7236
R_Toe0  -1.78623 -0.272944 -17.3255
407
root  -0.716725 33.24 16.8402 93.9944 8.77969 93.9663
Spine  -6.17628 -11.2236 -12.7329
Spine1  -5.09281 17.0235 2.83808
Neck  3.97569e-016 0 -2.38542e-015
Head  26.3748 -7.41392 20.2387
R_Clavicle  0.455982 -17.831 2.97072
R_UpperArm  30.5383 -3.79785 41.8644
R_Forearm  24.3138 -20.0553 17.6285
R_Hand  -0.986711 7.73514 -18.7616
L_Clavicle  -0.422462 15.1083 -0.492089
L_UpperArm  -2.90219 -0.734597 16.0186
L_Forearm  -6.80938 22.98 29.3156
L_Hand  -0.0952545 0.597335 -1.72205
L_Thigh  1.14732 -5.33646 -27.4622
L_Calf  3.25926 -4.26837 31.9934
L_Foot  5.0899 12.7741 6.22817
L_Toe0  2.91659 -0.279262 -0.394145
R_Thigh  7.95162 -9.63218 -5.57397
R_Calf  -6.31096 12.7975 43.8526
R_Foot  1.801 2.99747 -11.0246
R_Toe0  -1.78853 -0.273192 -17.3235
408
root  -0.80274 33.0366 17.9909 94.5599 8.77313 94.199
Spine  -7.02147 -12.7636 -12.4045
Spine1  -5.72789 20.1829 2.46285
Neck  3.97569e-016 0 -2.38542e-015
Head  27.7148 -8.49985 20.1134
R_Clavicle  0.466926 -17.3172 3.12776
R_UpperArm  28.6047 -2.40841 43.1058
R_Forearm  24.7911 -19.412 16.9964
R_Hand  -0.982307 7.84226 -18.7428
L_Clavicle  -0.429594 15.268 -0.240601
L_UpperArm  -1.77736 -2.22984 16.5454
L_Forearm  -7.06153 23.7303 30.5024
L_Hand  -0.0878572 0.395346 -1.64987
L_Thigh  1.88108 -4.63246 -30.4204
L_Calf  3.59376 -4.46226 33.8413
L_Foot  5.40947 11.8727 8.0694
L_Toe0  3.31191 -0.252211 -1.3857
R_Thigh  5.18968 -9.27177 -6.30844
R_Calf  -2.41899 14.5594 51.0007
R_Foot  2.04381 3.89487 -11.9173
R_Toe0  -1.78853 -0.273443 -17.3235
409
root  -1.00191 32.7522 19.1194 94.6489 8.47112 93.7247
Spine  -7.56308 -13.3551 -11.9748
Spine1  -6.1704 23.1772 1.93134
Neck  3.97569e-016 0 -2.38542e-015
Head  29.3494 -10.1122 19.5576
R_Clavicle  0.481454 -17.2837 3.43602
R_UpperArm  25.0302 -0.186027 43.4214
R_Forearm  25.328 -19.8738 17.4518
R_Hand  -0.936496 8.12582 -18.4356
L_Clavicle  -0.450194 15.9168 0.129608
L_UpperArm  -2.67223 -2.53473 17.1553
L_Forearm  -6.8028 24.7626 32.1964
L_Hand  -0.107987 -0.140677 -2.25848
L_Thigh  2.74649 -3.55181 -31.9192
L_Calf  3.17969 -4.33714 33.3091
L_Foot  5.90386 11.4566 10.0589
L_Toe0  2.65874 -0.246415 -0.500983
R_Thigh  4.41395 -7.6796 -5.08253
R_Calf  -1.77064 13.8598 49.7679
R_Foot  2.06317 1.30716 -16.7795
R_Toe0  -1.80297 -0.273944 -17.3317
410
root  -1.27646 32.4321 20.3129 93.29 8.68059 92.6308
Spine  -7.47586 -11.7177 -11.0332
Spine1  -6.10765 24.2938 1.81297
Neck  3.97569e-016 0 -2.38542e-015
Head  31.5515 -12.4004 17.913
R_Clavicle  0.472684 -18.0719 3.45562
R_UpperArm  20.9045 2.90442 42.5765
R_Forearm  26.2671 -21.2902 18.8469
R_Hand  -0.9313 8.15594 -18.4001
L_Clavicle  -0.468428 16.6202 0.34155
L_UpperArm  -6.7005 -1.00552 17.9553
L_Forearm  -6.42097 25.8793 33.9731
L_Hand  -0.151287 -0.93514 -3.74741
L_Thigh  3.21617 -2.41583 -32.2987
L_Calf  1.87133 -3.84474 28.9973
L_Foot  5.59003 9.32404 11.3759
L_Toe0  3.07169 -0.478781 2.12222
R_Thigh  2.11165 -4.87193 -3.30533
R_Calf  -2.88259 11.9834 42.9689
R_Foot  2.00864 -2.63147 -20.8195
R_Toe0  -1.66699 -0.271821 -17.2544
411
root  -1.58179 32.1171 21.5802 91.0957 9.44465 91.426
Spine  -6.93576 -8.70906 -9.923
Spine1  -5.44251 23.7636 3.11998
Neck  3.97569e-016 0 -2.38542e-015
Head  33.8172 -14.7956 15.0949
R_Clavicle  0.440071 -19.0833 2.75016
R_UpperArm  18.4759 5.56488 40.8515
R_Forearm  27.5421 -22.5816 20.0589
R_Hand  -1.00838 7.70453 -18.9254
L_Clavicle  -0.471929 16.6548 -0.0251027
L_UpperArm  -12.335 2.24341 18.9559
L_Forearm  -7.23385 27.0354 35.2688
L_Hand  -0.183294 -1.84981 -5.72481
L_Thigh  2.20436 -1.41693 -31.5712
L_Calf  1.11919 -2.84134 20.9477
L_Foot  4.03443 5.28922 10.6686
L_Toe0  4.84594 -1.13014 6.05895
R_Thigh  -1.63215 -2.06413 -2.35787
R_Calf  -3.37776 10.5125 34.9686
R_Foot  1.5512 -4.10311 -18.5084
R_Toe0  -1.07961 -0.26178 -16.9206
412
root  -1.91179 31.8873 22.805 89.597 9.96138 90.1076
Spine  -6.50858 -5.7855 -9.38167
Spine1  -4.51082 23.281 5.74055
Neck  3.97569e-016 0 -2.38542e-015
Head  35.1843 -16.3183 12.185
R_Clavicle  0.408375 -19.5181 1.57808
R_UpperArm  19.1437 6.41682 38.7248
R_Forearm  28.0499 -22.3449 19.7705
R_Hand  -1.06007 7.00167 -19.2537
L_Clavicle  -0.439869 15.6571 -1.08364
L_UpperArm  -15.3718 6.46171 20.0387
L_Forearm  -9.88884 28.1429 36.138
L_Hand  -0.185809 -2.54547 -7.23352
L_Thigh  0.520036 -0.110563 -28.8234
L_Calf  0.840422 -1.45687 10.398
L_Foot  2.28074 3.70225 5.80726
L_Toe0  3.90311 -1.44018 11.5637
R_Thigh  -1.68674 0.0872482 -2.28587
R_Calf  -4.71217 8.8931 29.0152
R_Foot  0.957093 -2.71182 -12.7006
R_Toe0  -1.18496 -0.264429 -16.9881
413
root  -2.28913 31.6378 23.9702 89.2183 10.0336 88.6272
Spine  -6.33762 -3.56762 -9.33803
Spine1  -3.5969 23.542 8.28779
Neck  3.97569e-016 0 -2.38542e-015
Head  35.371 -16.5706 10.2416
R_Clavicle  0.387171 -19.5079 0.748759
R_UpperArm  20.995 5.8606 36.3315
R_Forearm  27.5889 -19.8717 17.4616
R_Hand  -1.02148 6.48055 -18.8504
L_Clavicle  -0.37681 14.5112 -2.38161
L_UpperArm  -13.6692 10.4472 21.3727
L_Forearm  -12.5427 28.9237 36.539
L_Hand  -0.198448 -2.49432 -7.53336
L_Thigh  -0.525077 1.81016 -23.8398
L_Calf  0.583575 0.157443 -1.50063
L_Foot  0.541312 5.82135 -3.47336
L_Toe0  -0.326316 -0.323576 14.5974
R_Thigh  -0.4529 2.0396 -2.45009
R_Calf  -5.10393 7.55633 24.343
R_Foot  0.647477 -0.990101 -7.70721
R_Toe0  -1.65691 -0.271018 -17.1751
